<svg viewBox="0 0 60 60">
    <g id="Symbols" stroke="none" stroke-width="1" fill="none" fill-rule="evenodd">
        <g id="Logotype-Stacked">
            <g>
                <polygon fill="#000000" points="0 59.4256311 59.4256311 59.4256311 59.4256311 0.000582524272 0 0.000582524272"></polygon>
                <polygon fill="#FFFFFF" points="54.8188544 37.2584854 44.1237087 37.2584854 44.1237087 33.3497476 50.2122524 33.3497476 50.2122524 31.6586796 44.5943883 31.6586796 44.5943883 27.7843107 50.2122524 27.7843107 50.2122524 26.0932427 44.1237087 26.0932427 44.1237087 22.1670291 54.8188544 22.1670291"></polygon>
                <polygon fill="#FFFFFF" points="37.8329709 22.1669126 42.4401553 22.1669126 42.4401553 37.2583689 32.0758835 37.2583689 32.0758835 33.2797282 37.8329709 33.2797282"></polygon>
                <polygon fill="#FFFFFF" points="25.7814175 22.1669126 30.3886019 22.1669126 30.3886019 37.2583689 20.0243301 37.2583689 20.0243301 33.2797282 25.7814175 33.2797282"></polygon>
                <g id="Group-23" transform="translate(4.077670, 4.085825)" fill="#FFFFFF">
                    <path d="M6.1044466,22.5478835 C6.49939806,21.9805049 7.03648544,21.6933204 7.69998058,21.6933204 C8.43163107,21.6933204 8.94949515,21.9572039 9.33104854,22.5234175 C9.78133981,23.1909903 10.0195922,24.2803107 10.0195922,25.6702136 C10.0195922,27.0857476 9.79590291,28.1377864 9.35551456,28.7972039 C8.98328155,29.3535146 8.45726214,29.6127379 7.69998058,29.6127379 C6.97765049,29.6127379 6.43998058,29.339534 6.05726214,28.7773981 C5.6028932,28.1104078 5.3628932,27.0356505 5.3628932,25.6702136 C5.3628932,24.3234175 5.61920388,23.2434175 6.1044466,22.5478835 M0.529106796,25.6702136 C0.529106796,28.0282718 1.2036699,29.9983689 2.47939806,31.368466 C3.74930097,32.7309903 5.55454369,33.4521553 7.69998058,33.4521553 C9.91648544,33.4521553 11.7461942,32.7339029 12.990466,31.3760388 C14.2376505,30.0146796 14.8702718,28.0946796 14.8702718,25.6702136 C14.8702718,20.9436117 12.0560971,17.8894369 7.69998058,17.8894369 C5.51551456,17.8894369 3.69862136,18.6036117 2.44561165,19.9544854 C1.19143689,21.3065243 0.529106796,23.2830291 0.529106796,25.6702136"></path>
                    <polygon points="0.528932039 50.7331456 11.2240777 50.7331456 11.2240777 46.8238252 5.1361165 46.8238252 5.1361165 45.1333398 10.7533981 45.1333398 10.7533981 41.2589709 5.1361165 41.2589709 5.1361165 39.5679029 11.2240777 39.5679029 11.2240777 35.6416893 0.528932039 35.6416893"></polygon>
                    <polygon points="17.5148738 35.6415728 12.9082718 35.6415728 12.9082718 50.7330291 23.2719612 50.7330291 23.2719612 46.7543883 17.5148738 46.7543883"></polygon>
                    <polygon points="29.5663689 35.6415728 24.959767 35.6415728 24.959767 50.7330291 35.3234563 50.7330291 35.3234563 46.7543883 29.5663689 46.7543883"></polygon>
                    <path d="M45.9075146,43.2308738 C45.9075146,44.5963107 45.6675146,45.6699029 45.2131456,46.3374757 C44.8298447,46.8996117 44.2927573,47.1733981 43.5704272,47.1733981 C42.8131456,47.1733981 42.2871262,46.9135922 41.9148932,46.356699 C41.4745049,45.6978641 41.2508155,44.6464078 41.2508155,43.2308738 C41.2508155,41.8398058 41.489068,40.7516505 41.9393592,40.0834951 C42.3203301,39.5172816 42.8387767,39.2539806 43.5704272,39.2539806 C44.2339223,39.2539806 44.7710097,39.541165 45.1659612,40.1079612 C45.6512039,40.8040777 45.9075146,41.8834951 45.9075146,43.2308738 M48.8247961,37.5145631 C47.5717864,36.1636893 45.7548932,35.4495146 43.5704272,35.4495146 C39.2143107,35.4495146 36.3995534,38.5042718 36.3995534,43.2308738 C36.3995534,45.6553398 37.0321748,47.5747573 38.2799417,48.936699 C39.5242136,50.2945631 41.3539223,51.0116505 43.5704272,51.0116505 C45.7158641,51.0116505 47.5211068,50.2916505 48.7910097,48.9285437 C50.0667379,47.5590291 50.741301,45.588932 50.741301,43.2308738 C50.741301,40.8431068 50.0783883,38.8671845 48.8247961,37.5145631"></path>
                    <polygon points="0.528932039 15.6127573 11.2240777 15.6127573 11.2240777 11.7034369 5.1361165 11.7034369 5.1361165 10.0123689 10.7533981 10.0123689 10.7533981 6.138 5.1361165 6.138 5.1361165 4.44751456 11.2240777 4.44751456 11.2240777 0.521300971 0.528932039 0.521300971"></polygon>
                    <polygon points="17.5148738 0.521184466 12.9082718 0.521184466 12.9082718 15.6126408 23.2719612 15.6126408 23.2719612 11.6334175 17.5148738 11.6334175"></polygon>
                    <polygon points="29.5663689 0.521184466 24.959767 0.521184466 24.959767 15.6126408 35.3234563 15.6126408 35.3234563 11.6334175 29.5663689 11.6334175"></polygon>
                    <path d="M45.9075146,8.11048544 C45.9075146,9.47592233 45.6675146,10.5495146 45.2131456,11.2170874 C44.8298447,11.7792233 44.2927573,12.0524272 43.5704272,12.0524272 C42.8131456,12.0524272 42.2871262,11.7932039 41.9148932,11.2363107 C41.4745049,10.5768932 41.2508155,9.52543689 41.2508155,8.11048544 C41.2508155,6.71941748 41.489068,5.63126214 41.9393592,4.9631068 C42.3203301,4.3968932 42.8387767,4.13359223 43.5704272,4.13359223 C44.2339223,4.13359223 44.7710097,4.4207767 45.1659612,4.98757282 C45.6512039,5.6831068 45.9075146,6.7631068 45.9075146,8.11048544 M48.8247961,2.39417476 C47.5717864,1.04330097 45.7548932,0.329126214 43.5704272,0.329126214 C39.2143107,0.329126214 36.3995534,3.38330097 36.3995534,8.11048544 C36.3995534,10.5349515 37.0321748,12.4543689 38.2799417,13.8157282 C39.5242136,15.1735922 41.3539223,15.8912621 43.5704272,15.8912621 C45.7158641,15.8912621 47.5211068,15.1712621 48.7910097,13.8081553 C50.0667379,12.4386408 50.741301,10.4679612 50.741301,8.11048544 C50.741301,5.72271845 50.0783883,3.74621359 48.8247961,2.39417476"></path>
                </g>
            </g>
        </g>
    </g>
</svg>
